<svg width="40" height="40" viewBox="0 0 40 40" fill="none" xmlns="http://www.w3.org/2000/svg">
<g id="call-outline">
<path id="Vector" d="M35.2348 29.2188C33.9942 27.9688 30.9895 26.1446 29.5317 25.4094C27.6333 24.4532 27.477 24.3751 25.9848 25.4837C24.9895 26.2235 24.3278 26.8844 23.1629 26.636C21.9981 26.3876 19.4669 24.9868 17.2504 22.7774C15.034 20.568 13.552 17.9633 13.3028 16.8024C13.0536 15.6415 13.7254 14.9876 14.4583 13.9899C15.4911 12.5837 15.4129 12.3493 14.5301 10.4508C13.8419 8.97428 11.9645 5.99772 10.7098 4.76334C9.36763 3.43756 9.36763 3.67194 8.50279 4.03131C7.79871 4.32755 7.12323 4.68765 6.48482 5.10709C5.23482 5.93756 4.54107 6.62741 4.05592 7.66413C3.57076 8.70084 3.35279 11.1313 5.85826 15.6829C8.36373 20.2344 10.1215 22.5618 13.7598 26.1899C17.3981 29.818 20.1958 31.7688 24.2856 34.0626C29.345 36.8962 31.2856 36.3438 32.3254 35.8594C33.3653 35.3751 34.0583 34.6876 34.8903 33.4376C35.3108 32.8002 35.6717 32.1255 35.9684 31.4219C36.3286 30.5602 36.5629 30.5602 35.2348 29.2188Z" stroke="white" stroke-miterlimit="10"/>
</g>
</svg>
