<svg width="40" height="40" viewBox="0 0 40 40" fill="none" xmlns="http://www.w3.org/2000/svg">
<g id="chatbubble-ellipses-outline">
<path id="Vector" d="M6.83446 29.6875C6.92821 29.3453 6.72274 28.8695 6.52664 28.5266C6.46585 28.4241 6.39961 28.325 6.32821 28.2297C4.64638 25.6791 3.74997 22.6911 3.75008 19.6359C3.72196 10.8664 10.9938 3.75 19.986 3.75C27.8282 3.75 34.3751 9.18281 35.904 16.3945C36.1334 17.4637 36.2494 18.5541 36.2501 19.6477C36.2501 28.4297 29.2587 35.6578 20.2665 35.6578C18.836 35.6578 16.9071 35.2984 15.8548 35.0039C14.8024 34.7094 13.7516 34.3188 13.4806 34.2141C13.203 34.1075 12.9083 34.0527 12.611 34.0523C12.2868 34.0512 11.9658 34.1158 11.6673 34.2422L6.36727 36.1547C6.25145 36.2047 6.12869 36.2369 6.00321 36.25C5.90395 36.2497 5.80574 36.2297 5.71425 36.1912C5.62277 36.1527 5.53982 36.0965 5.47022 36.0257C5.40062 35.9549 5.34574 35.8711 5.30876 35.779C5.27178 35.6868 5.25343 35.5883 5.25477 35.4891C5.26129 35.402 5.277 35.3158 5.30164 35.232L6.83446 29.6875Z" stroke="white" stroke-miterlimit="10" stroke-linecap="round"/>
<path id="Vector_2" d="M14.5 20C14.5 21.1046 13.6046 22 12.5 22C11.3954 22 10.5 21.1046 10.5 20C10.5 18.8954 11.3954 18 12.5 18C13.6046 18 14.5 18.8954 14.5 20Z" stroke="white"/>
<path id="Vector_3" d="M22 20C22 21.1046 21.1046 22 20 22C18.8954 22 18 21.1046 18 20C18 18.8954 18.8954 18 20 18C21.1046 18 22 18.8954 22 20Z" stroke="white"/>
<path id="Vector_4" d="M29.5 20C29.5 21.1046 28.6046 22 27.5 22C26.3954 22 25.5 21.1046 25.5 20C25.5 18.8954 26.3954 18 27.5 18C28.6046 18 29.5 18.8954 29.5 20Z" stroke="white"/>
</g>
</svg>
