<svg width="40" height="40" viewBox="0 0 40 40" fill="none" xmlns="http://www.w3.org/2000/svg">
<g id="mail-open-outline">
<path id="Vector" d="M34.5 13.4072L20.8492 6.66975C20.5851 6.53945 20.2945 6.47168 20 6.47168C19.7055 6.47168 19.4149 6.53945 19.1508 6.66975L5.5 13.4072C4.97667 13.6637 4.53547 14.0613 4.22623 14.5553C3.917 15.0492 3.75204 15.6198 3.75 16.2026V30.6252C3.75 32.351 5.16719 33.7502 6.91562 33.7502H33.0875C34.8359 33.7502 36.2531 32.351 36.2531 30.6252V16.2026C36.2508 15.6195 36.0854 15.0487 35.7756 14.5547C35.4658 14.0607 35.0239 13.6632 34.5 13.4072V13.4072Z" stroke="white" stroke-linecap="round" stroke-linejoin="round"/>
<path id="Vector_2" d="M31.041 28.75L20.9426 20.8953C20.6134 20.6393 20.2084 20.5003 19.7914 20.5003C19.3744 20.5003 18.9694 20.6393 18.6402 20.8953L8.54102 28.75M24.166 23.0469L34.791 15M4.79102 15L15.6504 23.2031" stroke="white" stroke-linecap="round" stroke-linejoin="round"/>
</g>
</svg>
