<svg width="24" height="24" viewBox="0 0 24 24" fill="none" xmlns="http://www.w3.org/2000/svg">
<g id="4975305_google_google map_location_location place_map_icon 1" clip-path="url(#clip0_2396_2285)">
<path id="Vector" d="M21.1784 11.2285V21.4311L17.972 20.8376L16.5585 19.1419L10.6025 12.5207L15.6592 8.92773C18.1922 12.2711 18.2721 11.4561 18.2721 11.4561C18.2721 11.4561 19.5233 9.58811 21.1285 11.1933L21.1784 11.2285Z" fill="#CCCCCC"/>
<path id="Vector_2" d="M8.93927 10.458L19.4538 23.9906C19.3926 23.9966 19.3308 24 19.2682 24H2.07812L8.93927 10.458Z" fill="#518EF8"/>
<path id="Vector_3" d="M15.6595 8.92813L0.0209961 22.0902V4.75302C0.0209961 3.69777 0.876652 2.84277 1.93125 2.84277H13.3354C12.8457 3.68446 14.6615 4.2247 14.6615 5.26865C14.6615 6.3193 15.1638 8.08246 15.6595 8.92813Z" fill="#28B446"/>
<path id="Vector_4" d="M21.1785 21.4311V22.0897C21.1785 23.0818 20.422 23.8975 19.4539 23.9907L10.6553 15.3078L12.7851 13.1494L17.7007 17.9999L17.9722 18.268L21.1785 21.4311Z" fill="#F2F2F2"/>
<path id="Vector_5" d="M15.1179 10.7853L12.7852 13.1493L10.6553 15.3077L2.07829 23.9999H1.93125C0.876652 23.9999 0.0209961 23.1442 0.0209961 22.0896L13.3454 8.58691C13.5949 9.01409 15.3109 8.58157 15.6595 8.92755L16.3003 9.75124C16.613 10.0847 14.8491 10.4313 15.1179 10.7853Z" fill="#FFD837"/>
<path id="Vector_6" d="M5.0113 10.6769C3.3328 10.6769 1.96729 9.31138 1.96729 7.63288C1.96729 5.95438 3.3328 4.58887 5.0113 4.58887C5.82383 4.58887 6.58804 4.90565 7.16333 5.4809L6.45754 6.18655C6.07091 5.79984 5.55725 5.58688 5.0113 5.58688C3.88311 5.58688 2.96535 6.5047 2.96535 7.63284C2.96535 8.76098 3.88316 9.67879 5.0113 9.67879C5.96736 9.67879 6.77244 9.01963 6.99571 8.13182H5.0113V7.1338H8.05532V7.63284C8.05527 9.31138 6.6898 10.6769 5.0113 10.6769Z" fill="white"/>
<path id="Vector_7" d="M13.3353 2.84241C14.3233 1.14309 16.1644 0 18.2722 0C21.424 0 23.9789 2.55497 23.9789 5.70675C23.9789 6.4972 23.8179 7.24969 23.5278 7.93434C23.237 8.619 22.8165 9.23512 22.2976 9.75141C21.8651 10.2112 21.4772 10.6969 21.1286 11.1932C18.8444 14.4475 18.2722 18.1628 18.2722 18.1628C18.2722 18.1628 17.6508 14.1288 15.1177 10.7854C14.8489 10.4314 14.5588 10.0847 14.2461 9.75141H14.2468C13.8981 9.40542 13.5948 9.0142 13.3452 8.58703C12.8495 7.74136 12.5654 6.75731 12.5654 5.7067C12.5654 4.6628 12.8456 3.68405 13.3353 2.84241Z" fill="#F14336"/>
<path id="Vector_8" d="M18.2723 2.66895C19.9495 2.66895 21.3089 4.02912 21.3089 5.70635C21.3089 7.38359 19.9495 8.74296 18.2723 8.74296C16.595 8.74296 15.2349 7.38359 15.2349 5.70635C15.2349 4.02912 16.5951 2.66895 18.2723 2.66895Z" fill="#7E2D25"/>
</g>
<defs>
<clipPath id="clip0_2396_2285">
<rect width="24" height="24" fill="white"/>
</clipPath>
</defs>
</svg>
